<?xml version="1.0" encoding="utf-8"?>
<!-- Generator: Adobe Illustrator 16.0.0, SVG Export Plug-In . SVG Version: 6.00 Build 0)  -->
<!DOCTYPE svg PUBLIC "-//W3C//DTD SVG 1.1//EN" "http://www.w3.org/Graphics/SVG/1.1/DTD/svg11.dtd">
<svg version="1.1" id="Calque_1" xmlns="http://www.w3.org/2000/svg" xmlns:xlink="http://www.w3.org/1999/xlink" x="0px" y="0px"
	 width="20px" height="20px" viewBox="0 0 20 20" enable-background="new 0 0 20 20" xml:space="preserve">
<path fill="#A0ACBF" d="M12.067,11.564h7.346v6.541c0,0.463-0.374,0.836-0.835,0.836H1.356c-0.461,0-0.835-0.373-0.835-0.836v-6.541
	h7.397v0.215h0.274v1.734c0,0.461,0.373,0.834,0.835,0.834h1.878c0.462,0,0.835-0.373,0.835-0.834v-1.734h0.326V11.564z
	 M19.935,4.746V9.86c0,0.46-0.373,0.834-0.835,0.834H0.835C0.374,10.695,0,10.321,0,9.86V4.746c0-0.461,0.374-0.835,0.835-0.835
	H6.47V2.27c0-0.669,0.542-1.21,1.21-1.21h4.573c0.669,0,1.211,0.541,1.211,1.21v1.642H19.1C19.561,3.911,19.935,4.285,19.935,4.746z
	 M11.796,2.729H8.14v1.183h3.656V2.729z"/>
</svg>
