<?xml version="1.0" encoding="utf-8"?>
<!-- Generator: Adobe Illustrator 16.0.0, SVG Export Plug-In . SVG Version: 6.00 Build 0)  -->
<!DOCTYPE svg PUBLIC "-//W3C//DTD SVG 1.1//EN" "http://www.w3.org/Graphics/SVG/1.1/DTD/svg11.dtd">
<svg version="1.1" id="Calque_1" xmlns="http://www.w3.org/2000/svg" xmlns:xlink="http://www.w3.org/1999/xlink" x="0px" y="0px"
	 width="20px" height="20px" viewBox="0 0 20 20" enable-background="new 0 0 20 20" xml:space="preserve">
<g>
	<rect x="15.014" y="13.676" fill="#9BA3AF" width="1.188" height="3.521"/>
	<rect x="13.846" y="14.843" fill="#9BA3AF" width="3.524" height="1.188"/>
</g>
<path fill="#9BA3AF" d="M2.63,6.771v7.431c0,0.554,0.445,1.005,0.992,1.005h8.931c0.549,0,0.993-0.451,0.993-1.005V6.771H2.63z
	 M5.359,14.461H3.375v-1.984h1.984V14.461z M5.359,11.979H3.375V9.995h1.984V11.979z M5.359,9.499H3.375V7.515h1.984V9.499z
	 M7.84,14.461H5.854v-1.984h1.985L7.84,14.461L7.84,14.461z M7.84,11.979H5.854V9.995h1.985L7.84,11.979L7.84,11.979z M7.84,9.499
	H5.854V7.515h1.985L7.84,9.499L7.84,9.499z M10.32,14.461H8.336v-1.984h1.984V14.461L10.32,14.461z M10.32,11.979H8.336V9.995h1.984
	V11.979L10.32,11.979z M10.32,9.499H8.336V7.515h1.984V9.499L10.32,9.499z M12.802,14.461h-1.984v-1.984h1.984V14.461z
	 M12.802,11.979h-1.984V9.995h1.984V11.979z M12.802,9.499h-1.984V7.515h1.984V9.499z"/>
<path fill="#9BA3AF" d="M12.552,4.289H10.94V3.173c0-0.206-0.167-0.372-0.372-0.372c-0.206,0-0.372,0.167-0.372,0.372v1.116H5.979
	V3.173c0-0.206-0.167-0.372-0.372-0.372c-0.205,0-0.373,0.167-0.373,0.372v1.116H3.622c-0.547,0-0.992,0.45-0.992,1.005V6.15l0,0
	v0.125h10.914V6.15l0,0V5.294C13.544,4.739,13.101,4.289,12.552,4.289z M5.607,6.026c-0.41,0-0.744-0.333-0.744-0.744
	c0-0.275,0.151-0.515,0.372-0.644v0.644c0,0.205,0.167,0.373,0.373,0.373c0.207,0,0.372-0.167,0.372-0.373V4.638
	c0.223,0.129,0.373,0.369,0.373,0.644C6.351,5.693,6.018,6.026,5.607,6.026z M10.568,6.026c-0.411,0-0.745-0.333-0.745-0.744
	c0-0.275,0.151-0.515,0.373-0.644v0.644c0,0.205,0.168,0.373,0.373,0.373c0.206,0,0.371-0.167,0.371-0.373V4.638
	c0.224,0.129,0.375,0.369,0.375,0.644C11.313,5.693,10.979,6.026,10.568,6.026z"/>
</svg>
