<?xml version="1.0" encoding="utf-8"?>
<!-- Generator: Adobe Illustrator 16.0.0, SVG Export Plug-In . SVG Version: 6.00 Build 0)  -->
<!DOCTYPE svg PUBLIC "-//W3C//DTD SVG 1.1//EN" "http://www.w3.org/Graphics/SVG/1.1/DTD/svg11.dtd">
<svg version="1.1" id="Calque_1" xmlns="http://www.w3.org/2000/svg" xmlns:xlink="http://www.w3.org/1999/xlink" x="0px" y="0px"
	 width="20px" height="20px" viewBox="0 0 20 20" enable-background="new 0 0 20 20" xml:space="preserve">
<path fill="#A0ACBF" d="M1.198,6.399v11.984c0,0.895,0.717,1.62,1.6,1.62h14.403c0.885,0,1.602-0.726,1.602-1.62V6.399H1.198z
	 M5.599,18.803h-3.2v-3.201h3.2V18.803z M5.599,14.801h-3.2V11.6h3.2V14.801z M5.599,10.8h-3.2V7.599h3.2V10.8z M9.601,18.803H6.399
	v-3.201H9.6L9.601,18.803L9.601,18.803z M9.601,14.801H6.399V11.6H9.6L9.601,14.801L9.601,14.801z M9.601,10.8H6.399V7.599H9.6
	L9.601,10.8L9.601,10.8z M13.602,18.803H10.4v-3.201h3.202V18.803L13.602,18.803z M13.602,14.801H10.4V11.6h3.202V14.801
	L13.602,14.801z M13.602,10.8H10.4V7.599h3.202V10.8L13.602,10.8z M17.604,18.803h-3.201v-3.201h3.201V18.803z M17.604,14.801
	h-3.201V11.6h3.201V14.801z M17.604,10.8h-3.201V7.599h3.201V10.8z"/>
<path fill="#A0ACBF" d="M17.201,2.397H14.6v-1.8c0-0.332-0.268-0.6-0.599-0.6S13.4,0.266,13.4,0.597v1.8H6.599v-1.8
	c0-0.332-0.269-0.6-0.6-0.6s-0.601,0.269-0.601,0.6v1.8h-2.6c-0.883,0-1.6,0.725-1.6,1.619v1.382l0,0v0.2h17.605v-0.2l0,0V4.017
	C18.803,3.122,18.086,2.397,17.201,2.397z M5.999,5.199c-0.662,0-1.2-0.538-1.2-1.201c0-0.443,0.242-0.831,0.6-1.038v1.038
	C5.399,4.33,5.668,4.599,6,4.599S6.6,4.33,6.6,3.998V2.96c0.359,0.208,0.6,0.595,0.6,1.038C7.199,4.661,6.662,5.199,5.999,5.199z
	 M14.002,5.199c-0.663,0-1.201-0.538-1.201-1.201c0-0.443,0.242-0.831,0.602-1.038v1.038c0,0.332,0.27,0.601,0.601,0.601
	s0.599-0.269,0.599-0.601V2.96c0.359,0.208,0.603,0.595,0.603,1.038C15.202,4.661,14.665,5.199,14.002,5.199z"/>
</svg>
