<?xml version="1.0" encoding="utf-8"?>
<!-- Generator: Adobe Illustrator 16.0.0, SVG Export Plug-In . SVG Version: 6.00 Build 0)  -->
<!DOCTYPE svg PUBLIC "-//W3C//DTD SVG 1.1//EN" "http://www.w3.org/Graphics/SVG/1.1/DTD/svg11.dtd">
<svg version="1.1" id="Calque_1" xmlns="http://www.w3.org/2000/svg" xmlns:xlink="http://www.w3.org/1999/xlink" x="0px" y="0px"
	 width="20px" height="20px" viewBox="0 0 20 20" enable-background="new 0 0 20 20" xml:space="preserve">
<g>
	<path fill="#A0ACBF" d="M14.361,3.188h-0.795c-0.109-0.187-0.264-0.341-0.451-0.45v-1.42c0-0.688-0.557-1.247-1.245-1.247H8.13
		c-0.688,0-1.247,0.558-1.247,1.247v1.419c-0.187,0.109-0.342,0.264-0.45,0.45H5.637c-1.721,0-3.116,1.395-3.116,3.116v10.593
		c0,1.723,1.395,3.117,3.116,3.117h8.724c1.722,0,3.117-1.396,3.117-3.117V6.304C17.479,4.583,16.083,3.188,14.361,3.188z
		 M8.753,1.318h2.493c0.345,0,0.624,0.278,0.624,0.623c0,0.344-0.279,0.624-0.624,0.624H8.753c-0.344,0-0.623-0.279-0.623-0.624
		C8.13,1.597,8.409,1.318,8.753,1.318z M16.232,16.896c0,1.031-0.84,1.871-1.871,1.871H5.637c-1.031,0-1.869-0.84-1.869-1.871V6.304
		c0-1.031,0.838-1.87,1.869-1.87h0.624c0,1.033,0.836,1.87,1.87,1.87h3.74c1.031,0,1.869-0.837,1.869-1.87h0.621
		c1.033,0,1.871,0.839,1.871,1.87V16.896L16.232,16.896z"/>
	<path fill="#A0ACBF" d="M13.738,8.796H6.261c-0.345,0-0.624,0.279-0.624,0.623c0,0.344,0.279,0.624,0.624,0.624h7.479
		c0.345,0,0.621-0.279,0.621-0.624C14.361,9.074,14.084,8.796,13.738,8.796z"/>
	<path fill="#A0ACBF" d="M13.738,11.289H6.261c-0.345,0-0.624,0.279-0.624,0.623c0,0.345,0.279,0.624,0.624,0.624h7.479
		c0.345,0,0.621-0.279,0.621-0.624C14.361,11.568,14.084,11.289,13.738,11.289z"/>
	<path fill="#A0ACBF" d="M13.738,13.782H6.261c-0.345,0-0.624,0.278-0.624,0.622c0,0.346,0.279,0.623,0.624,0.623h7.479
		c0.345,0,0.621-0.277,0.621-0.623C14.361,14.061,14.084,13.782,13.738,13.782z"/>
</g>
</svg>
