<?xml version="1.0" encoding="utf-8"?>
<!-- Generator: Adobe Illustrator 16.0.0, SVG Export Plug-In . SVG Version: 6.00 Build 0)  -->
<!DOCTYPE svg PUBLIC "-//W3C//DTD SVG 1.1//EN" "http://www.w3.org/Graphics/SVG/1.1/DTD/svg11.dtd">
<svg version="1.1" id="Calque_1" xmlns="http://www.w3.org/2000/svg" xmlns:xlink="http://www.w3.org/1999/xlink" x="0px" y="0px"
	 width="20px" height="20px" viewBox="0 0 20 20" enable-background="new 0 0 20 20" xml:space="preserve">
<g transform="translate(0,-952.36218)">
	<path fill="#A0ACBF" d="M9.99,954.61c-0.104,0.003-0.204,0.037-0.298,0.102l-9.503,7.502c-0.218,0.176-0.249,0.499-0.085,0.708
		c0.161,0.211,0.504,0.242,0.711,0.079l9.189-7.251l9.189,7.251c0.207,0.163,0.539,0.13,0.705-0.079
		c0.162-0.204,0.145-0.546-0.08-0.708l-9.502-7.502C10.208,954.638,10.095,954.607,9.99,954.61z M10.005,956.61l-6.751,5.252v8.251
		h4.751v-5.003h4v5.003h4.752v-8.251L10.005,956.61z"/>
</g>
</svg>
